<svg xmlns="http://www.w3.org/2000/svg" xmlns:xlink="http://www.w3.org/1999/xlink" width="500" zoomAndPan="magnify" viewBox="0 0 375 374.999991" height="500" preserveAspectRatio="xMidYMid meet" version="1.0"><defs><g/><clipPath id="5f3c43b236"><path d="M 273.132812 148.601562 L 301.632812 148.601562 L 301.632812 239.351562 L 273.132812 239.351562 Z M 273.132812 148.601562 " clip-rule="nonzero"/></clipPath></defs><g fill="#ffffff" fill-opacity="1"><g transform="translate(0.986329, 230.424638)"><g><path d="M 62.984375 -27.65625 C 62.984375 -27.519531 62.882812 -25.914062 62.6875 -22.84375 L 22.328125 -22.84375 C 23.148438 -19.96875 24.738281 -17.757812 27.09375 -16.21875 C 29.445312 -14.6875 32.398438 -13.921875 35.953125 -13.921875 C 38.609375 -13.921875 40.910156 -14.296875 42.859375 -15.046875 C 44.804688 -15.804688 46.769531 -17.039062 48.75 -18.75 L 59 -8.09375 C 53.601562 -2.082031 45.710938 0.921875 35.328125 0.921875 C 28.847656 0.921875 23.148438 -0.304688 18.234375 -2.765625 C 13.316406 -5.222656 9.507812 -8.632812 6.8125 -13 C 4.113281 -17.375 2.765625 -22.328125 2.765625 -27.859375 C 2.765625 -33.316406 4.078125 -38.210938 6.703125 -42.546875 C 9.335938 -46.890625 12.972656 -50.289062 17.609375 -52.75 C 22.253906 -55.207031 27.476562 -56.4375 33.28125 -56.4375 C 38.8125 -56.4375 43.832031 -55.289062 48.34375 -53 C 52.851562 -50.71875 56.421875 -47.40625 59.046875 -43.0625 C 61.671875 -38.726562 62.984375 -33.59375 62.984375 -27.65625 Z M 33.390625 -42.609375 C 30.390625 -42.609375 27.878906 -41.753906 25.859375 -40.046875 C 23.847656 -38.335938 22.566406 -36.015625 22.015625 -33.078125 L 44.765625 -33.078125 C 44.210938 -36.015625 42.925781 -38.335938 40.90625 -40.046875 C 38.894531 -41.753906 36.390625 -42.609375 33.390625 -42.609375 Z M 33.390625 -42.609375 "/></g></g></g><g fill="#ffffff" fill-opacity="1"><g transform="translate(56.293228, 230.424638)"><g><path d="M 6.25 -76 L 25.703125 -76 L 25.703125 0 L 6.25 0 Z M 6.25 -76 "/></g></g></g><g fill="#ffffff" fill-opacity="1"><g transform="translate(77.903311, 230.424638)"><g><path d="M 62.984375 -27.65625 C 62.984375 -27.519531 62.882812 -25.914062 62.6875 -22.84375 L 22.328125 -22.84375 C 23.148438 -19.96875 24.738281 -17.757812 27.09375 -16.21875 C 29.445312 -14.6875 32.398438 -13.921875 35.953125 -13.921875 C 38.609375 -13.921875 40.910156 -14.296875 42.859375 -15.046875 C 44.804688 -15.804688 46.769531 -17.039062 48.75 -18.75 L 59 -8.09375 C 53.601562 -2.082031 45.710938 0.921875 35.328125 0.921875 C 28.847656 0.921875 23.148438 -0.304688 18.234375 -2.765625 C 13.316406 -5.222656 9.507812 -8.632812 6.8125 -13 C 4.113281 -17.375 2.765625 -22.328125 2.765625 -27.859375 C 2.765625 -33.316406 4.078125 -38.210938 6.703125 -42.546875 C 9.335938 -46.890625 12.972656 -50.289062 17.609375 -52.75 C 22.253906 -55.207031 27.476562 -56.4375 33.28125 -56.4375 C 38.8125 -56.4375 43.832031 -55.289062 48.34375 -53 C 52.851562 -50.71875 56.421875 -47.40625 59.046875 -43.0625 C 61.671875 -38.726562 62.984375 -33.59375 62.984375 -27.65625 Z M 33.390625 -42.609375 C 30.390625 -42.609375 27.878906 -41.753906 25.859375 -40.046875 C 23.847656 -38.335938 22.566406 -36.015625 22.015625 -33.078125 L 44.765625 -33.078125 C 44.210938 -36.015625 42.925781 -38.335938 40.90625 -40.046875 C 38.894531 -41.753906 36.390625 -42.609375 33.390625 -42.609375 Z M 33.390625 -42.609375 "/></g></g></g><g fill="#ffffff" fill-opacity="1"><g transform="translate(133.210211, 230.424638)"><g><path d="M 31.4375 -19.453125 L 25.703125 -13.625 L 25.703125 0 L 6.25 0 L 6.25 -76 L 25.703125 -76 L 25.703125 -36.15625 L 45.578125 -55.515625 L 68.625 -55.515625 L 45.578125 -31.75 L 70.5625 0 L 47.015625 0 Z M 31.4375 -19.453125 "/></g></g></g><g fill="#ffffff" fill-opacity="1"><g transform="translate(193.023669, 230.424638)"><g><path d="M 44.546875 -2.25 C 42.910156 -1.226562 40.914062 -0.445312 38.5625 0.09375 C 36.207031 0.644531 33.695312 0.921875 31.03125 0.921875 C 23.789062 0.921875 18.222656 -0.851562 14.328125 -4.40625 C 10.441406 -7.957031 8.5 -13.25 8.5 -20.28125 L 8.5 -38.921875 L 0.40625 -38.921875 L 0.40625 -53.46875 L 8.5 -53.46875 L 8.5 -67.90625 L 27.96875 -67.90625 L 27.96875 -53.46875 L 40.65625 -53.46875 L 40.65625 -38.921875 L 27.96875 -38.921875 L 27.96875 -20.484375 C 27.96875 -18.503906 28.492188 -16.953125 29.546875 -15.828125 C 30.609375 -14.703125 32.023438 -14.140625 33.796875 -14.140625 C 36.046875 -14.140625 38.023438 -14.71875 39.734375 -15.875 Z M 44.546875 -2.25 "/></g></g></g><g fill="#ffffff" fill-opacity="1"><g transform="translate(228.358284, 230.424638)"><g><path d="M 24.78125 -48.859375 C 26.757812 -51.378906 29.335938 -53.269531 32.515625 -54.53125 C 35.691406 -55.800781 39.328125 -56.4375 43.421875 -56.4375 L 43.421875 -38.921875 C 41.648438 -39.128906 40.179688 -39.234375 39.015625 -39.234375 C 34.859375 -39.234375 31.597656 -38.101562 29.234375 -35.84375 C 26.878906 -33.59375 25.703125 -30.144531 25.703125 -25.5 L 25.703125 0 L 6.25 0 L 6.25 -55.515625 L 24.78125 -55.515625 Z M 24.78125 -48.859375 "/></g></g></g><g fill="#ffffff" fill-opacity="1"><g transform="translate(263.287096, 230.424638)"><g/></g></g><g fill="#ffffff" fill-opacity="1"><g transform="translate(282.643895, 230.424638)"><g/></g></g><g fill="#ffffff" fill-opacity="1"><g transform="translate(302.005844, 230.424638)"><g><path d="M 31.4375 -19.453125 L 25.703125 -13.625 L 25.703125 0 L 6.25 0 L 6.25 -76 L 25.703125 -76 L 25.703125 -36.15625 L 45.578125 -55.515625 L 68.625 -55.515625 L 45.578125 -31.75 L 70.5625 0 L 47.015625 0 Z M 31.4375 -19.453125 "/></g></g></g><g clip-path="url(#5f3c43b236)"><path fill="#22ff00" d="M 296.007812 148.679688 C 288.382812 164.640625 280.757812 180.597656 273.132812 196.558594 C 277.210938 196.558594 281.289062 196.558594 285.371094 196.558594 C 281.46875 210.746094 277.566406 224.933594 273.664062 239.117188 C 282.886719 221.03125 292.109375 202.941406 301.328125 184.855469 C 296.539062 184.855469 291.746094 184.855469 286.957031 184.855469 C 289.972656 172.796875 292.992188 160.738281 296.007812 148.679688 " fill-opacity="1" fill-rule="nonzero"/></g></svg>